<mxfile host="app.diagrams.net" agent="Mozilla/5.0 (X11; Linux x86_64) AppleWebKit/537.36 (KHTML, like Gecko) Chrome/130.0.0.0 Safari/537.36" version="24.8.3">
  <diagram name="Page-1" id="oo9TjM5JDsn_DlLtNaKX">
    <mxGraphModel dx="769" dy="450" grid="1" gridSize="10" guides="1" tooltips="1" connect="1" arrows="1" fold="1" page="1" pageScale="1" pageWidth="850" pageHeight="1100" math="0" shadow="0">
      <root>
        <mxCell id="0" />
        <mxCell id="1" parent="0" />
        <mxCell id="1jzwWRDmpM7M-U3gzbHQ-2" value="planning_controller_node" style="rounded=0;whiteSpace=wrap;html=1;" parent="1" vertex="1">
          <mxGeometry x="70" y="260" width="180" height="50" as="geometry" />
        </mxCell>
        <mxCell id="1jzwWRDmpM7M-U3gzbHQ-4" value="Launch script" style="ellipse;whiteSpace=wrap;html=1;" parent="1" vertex="1">
          <mxGeometry x="250" y="90" width="120" height="60" as="geometry" />
        </mxCell>
        <mxCell id="1jzwWRDmpM7M-U3gzbHQ-5" value="PlanSys2" style="ellipse;whiteSpace=wrap;html=1;" parent="1" vertex="1">
          <mxGeometry x="230" y="430" width="120" height="60" as="geometry" />
        </mxCell>
        <mxCell id="1jzwWRDmpM7M-U3gzbHQ-6" value="move_action_node" style="rounded=0;whiteSpace=wrap;html=1;" parent="1" vertex="1">
          <mxGeometry x="370" y="260" width="150" height="50" as="geometry" />
        </mxCell>
        <mxCell id="1jzwWRDmpM7M-U3gzbHQ-7" value="" style="endArrow=classic;html=1;rounded=0;exitX=0;exitY=1;exitDx=0;exitDy=0;entryX=0.5;entryY=0;entryDx=0;entryDy=0;" parent="1" source="1jzwWRDmpM7M-U3gzbHQ-4" target="1jzwWRDmpM7M-U3gzbHQ-2" edge="1">
          <mxGeometry width="50" height="50" relative="1" as="geometry">
            <mxPoint x="390" y="310" as="sourcePoint" />
            <mxPoint x="440" y="260" as="targetPoint" />
          </mxGeometry>
        </mxCell>
        <mxCell id="1jzwWRDmpM7M-U3gzbHQ-8" value="Inicia" style="edgeLabel;html=1;align=center;verticalAlign=middle;resizable=0;points=[];" parent="1jzwWRDmpM7M-U3gzbHQ-7" vertex="1" connectable="0">
          <mxGeometry x="-0.0624" y="1" relative="1" as="geometry">
            <mxPoint as="offset" />
          </mxGeometry>
        </mxCell>
        <mxCell id="1jzwWRDmpM7M-U3gzbHQ-9" value="" style="endArrow=classic;html=1;rounded=0;exitX=1;exitY=1;exitDx=0;exitDy=0;entryX=0.5;entryY=0;entryDx=0;entryDy=0;" parent="1" source="1jzwWRDmpM7M-U3gzbHQ-4" target="1jzwWRDmpM7M-U3gzbHQ-6" edge="1">
          <mxGeometry width="50" height="50" relative="1" as="geometry">
            <mxPoint x="278" y="148" as="sourcePoint" />
            <mxPoint x="170" y="270" as="targetPoint" />
          </mxGeometry>
        </mxCell>
        <mxCell id="1jzwWRDmpM7M-U3gzbHQ-10" value="Inicia" style="edgeLabel;html=1;align=center;verticalAlign=middle;resizable=0;points=[];" parent="1jzwWRDmpM7M-U3gzbHQ-9" vertex="1" connectable="0">
          <mxGeometry x="-0.0624" y="1" relative="1" as="geometry">
            <mxPoint as="offset" />
          </mxGeometry>
        </mxCell>
        <mxCell id="1jzwWRDmpM7M-U3gzbHQ-11" value="" style="endArrow=classic;html=1;rounded=0;exitX=0.5;exitY=1;exitDx=0;exitDy=0;entryX=0;entryY=0;entryDx=0;entryDy=0;" parent="1" source="1jzwWRDmpM7M-U3gzbHQ-2" target="1jzwWRDmpM7M-U3gzbHQ-5" edge="1">
          <mxGeometry width="50" height="50" relative="1" as="geometry">
            <mxPoint x="340" y="370" as="sourcePoint" />
            <mxPoint x="390" y="320" as="targetPoint" />
          </mxGeometry>
        </mxCell>
        <mxCell id="1jzwWRDmpM7M-U3gzbHQ-12" value="Define problema e&lt;br&gt;inicia geração do plano" style="edgeLabel;html=1;align=center;verticalAlign=middle;resizable=0;points=[];" parent="1jzwWRDmpM7M-U3gzbHQ-11" vertex="1" connectable="0">
          <mxGeometry x="-0.0693" relative="1" as="geometry">
            <mxPoint as="offset" />
          </mxGeometry>
        </mxCell>
        <mxCell id="1jzwWRDmpM7M-U3gzbHQ-13" value="" style="endArrow=classic;html=1;rounded=0;exitX=1;exitY=0;exitDx=0;exitDy=0;" parent="1" source="1jzwWRDmpM7M-U3gzbHQ-5" edge="1">
          <mxGeometry width="50" height="50" relative="1" as="geometry">
            <mxPoint x="400" y="360" as="sourcePoint" />
            <mxPoint x="450" y="310" as="targetPoint" />
          </mxGeometry>
        </mxCell>
        <mxCell id="1jzwWRDmpM7M-U3gzbHQ-14" value="Dispatch do plano&lt;br&gt;(action)" style="edgeLabel;html=1;align=center;verticalAlign=middle;resizable=0;points=[];" parent="1jzwWRDmpM7M-U3gzbHQ-13" vertex="1" connectable="0">
          <mxGeometry x="-0.205" y="-2" relative="1" as="geometry">
            <mxPoint as="offset" />
          </mxGeometry>
        </mxCell>
        <mxCell id="1jzwWRDmpM7M-U3gzbHQ-15" value="router_generator" style="rounded=0;whiteSpace=wrap;html=1;fillColor=#ffe6cc;strokeColor=#d79b00;" parent="1" vertex="1">
          <mxGeometry x="660" y="170" width="140" height="50" as="geometry" />
        </mxCell>
        <mxCell id="1jzwWRDmpM7M-U3gzbHQ-16" value="router_executor" style="rounded=0;whiteSpace=wrap;html=1;fillColor=#ffe6cc;strokeColor=#d79b00;" parent="1" vertex="1">
          <mxGeometry x="660" y="317" width="140" height="50" as="geometry" />
        </mxCell>
        <mxCell id="1jzwWRDmpM7M-U3gzbHQ-17" value="" style="endArrow=classic;startArrow=classic;html=1;rounded=0;exitX=1;exitY=0.25;exitDx=0;exitDy=0;entryX=0;entryY=0.5;entryDx=0;entryDy=0;fillColor=#ffe6cc;strokeColor=#d79b00;" parent="1" source="1jzwWRDmpM7M-U3gzbHQ-6" target="1jzwWRDmpM7M-U3gzbHQ-15" edge="1">
          <mxGeometry width="50" height="50" relative="1" as="geometry">
            <mxPoint x="550" y="300" as="sourcePoint" />
            <mxPoint x="600" y="250" as="targetPoint" />
          </mxGeometry>
        </mxCell>
        <mxCell id="1jzwWRDmpM7M-U3gzbHQ-19" value="(service)" style="edgeLabel;html=1;align=center;verticalAlign=middle;resizable=0;points=[];" parent="1jzwWRDmpM7M-U3gzbHQ-17" vertex="1" connectable="0">
          <mxGeometry x="-0.0489" y="3" relative="1" as="geometry">
            <mxPoint as="offset" />
          </mxGeometry>
        </mxCell>
        <mxCell id="1jzwWRDmpM7M-U3gzbHQ-18" value="" style="endArrow=classic;startArrow=classic;html=1;rounded=0;exitX=1;exitY=0.75;exitDx=0;exitDy=0;entryX=0;entryY=0.5;entryDx=0;entryDy=0;fillColor=#ffe6cc;strokeColor=#d79b00;" parent="1" source="1jzwWRDmpM7M-U3gzbHQ-6" target="1jzwWRDmpM7M-U3gzbHQ-16" edge="1">
          <mxGeometry width="50" height="50" relative="1" as="geometry">
            <mxPoint x="550" y="300" as="sourcePoint" />
            <mxPoint x="600" y="250" as="targetPoint" />
          </mxGeometry>
        </mxCell>
        <mxCell id="1jzwWRDmpM7M-U3gzbHQ-20" value="(action)" style="edgeLabel;html=1;align=center;verticalAlign=middle;resizable=0;points=[];" parent="1jzwWRDmpM7M-U3gzbHQ-18" vertex="1" connectable="0">
          <mxGeometry x="-0.0464" y="-1" relative="1" as="geometry">
            <mxPoint as="offset" />
          </mxGeometry>
        </mxCell>
        <mxCell id="1jzwWRDmpM7M-U3gzbHQ-22" value="take_picture_action_node" style="rounded=0;whiteSpace=wrap;html=1;fillColor=#ffe6cc;strokeColor=#d79b00;" parent="1" vertex="1">
          <mxGeometry x="430" y="520" width="180" height="50" as="geometry" />
        </mxCell>
        <mxCell id="1jzwWRDmpM7M-U3gzbHQ-23" value="" style="endArrow=classic;html=1;rounded=0;exitX=1;exitY=1;exitDx=0;exitDy=0;entryX=0;entryY=0.5;entryDx=0;entryDy=0;fillColor=#ffe6cc;strokeColor=#d79b00;" parent="1" source="1jzwWRDmpM7M-U3gzbHQ-5" target="1jzwWRDmpM7M-U3gzbHQ-22" edge="1">
          <mxGeometry width="50" height="50" relative="1" as="geometry">
            <mxPoint x="500" y="510" as="sourcePoint" />
            <mxPoint x="550" y="460" as="targetPoint" />
          </mxGeometry>
        </mxCell>
        <mxCell id="1jzwWRDmpM7M-U3gzbHQ-24" value="????" style="rounded=0;whiteSpace=wrap;html=1;fillColor=#ffe6cc;strokeColor=#d79b00;" parent="1" vertex="1">
          <mxGeometry x="670" y="520" width="120" height="50" as="geometry" />
        </mxCell>
        <mxCell id="1jzwWRDmpM7M-U3gzbHQ-26" value="" style="endArrow=classic;html=1;rounded=0;exitX=1;exitY=0.5;exitDx=0;exitDy=0;entryX=0;entryY=0.5;entryDx=0;entryDy=0;fillColor=#ffe6cc;strokeColor=#d79b00;" parent="1" source="1jzwWRDmpM7M-U3gzbHQ-22" target="1jzwWRDmpM7M-U3gzbHQ-24" edge="1">
          <mxGeometry width="50" height="50" relative="1" as="geometry">
            <mxPoint x="510" y="460" as="sourcePoint" />
            <mxPoint x="560" y="410" as="targetPoint" />
          </mxGeometry>
        </mxCell>
      </root>
    </mxGraphModel>
  </diagram>
</mxfile>
